<svg width="28" height="22" viewBox="0 0 28 22" fill="none" xmlns="http://www.w3.org/2000/svg">
<path d="M14.6219 20.1928C14.8862 20.527 15.1971 20.6514 15.5858 20.5814C16.7052 20.3793 17.8168 20.1461 18.9361 19.9751C20.9961 19.6564 23.0716 19.5553 25.1549 19.5709C25.7768 19.5786 26.3987 19.5709 27.0516 19.5709C27.0516 19.4387 27.0516 19.3299 27.0516 19.2133C27.0516 13.8496 27.0516 8.48592 27.0516 3.12223C27.0516 3.0445 27.0516 2.96676 27.0516 2.88903C27.0594 2.547 27.2382 2.33711 27.5258 2.34489C27.8057 2.34489 27.9845 2.55477 27.9845 2.8968C27.9845 8.5792 27.9845 14.2616 27.9845 19.9518C27.9845 20.3404 27.8057 20.4959 27.4014 20.5037C25.9012 20.5192 24.4087 20.5115 22.9084 20.5503C20.5841 20.6125 18.2832 20.9545 16.0133 21.4443C15.1194 21.6386 14.7074 21.5298 13.9845 20.9157C13.6346 21.281 13.1993 21.5376 12.6863 21.522C12.2432 21.5065 11.8079 21.4054 11.3726 21.3121C8.72959 20.768 6.05552 20.4959 3.35813 20.4959C2.45641 20.4959 1.54692 20.4959 0.645197 20.4959C0.147696 20.4959 0 20.356 0 19.8585C0 14.2305 0 8.6103 0 2.98231C0 2.55477 0.155469 2.34489 0.458634 2.33711C0.769572 2.32934 0.932815 2.55477 0.932815 2.99786C0.932815 8.39264 0.932815 13.7874 0.932815 19.1744C0.932815 19.291 0.932815 19.4076 0.932815 19.5631C1.05719 19.5631 1.17379 19.5631 1.28262 19.5631C2.94614 19.602 4.60966 19.602 6.26541 19.6797C8.25541 19.773 10.2221 20.0917 12.1655 20.5348C12.6241 20.6358 13.0283 20.6125 13.3937 20.1461C12.7485 19.8507 12.1499 19.5398 11.5203 19.2988C10.3698 18.8557 9.16491 18.6381 7.92893 18.6303C6.11771 18.6225 4.31427 18.6303 2.50305 18.6303C2.00555 18.6303 1.85786 18.4826 1.85786 17.9929C1.85786 12.2094 1.85786 6.43373 1.85786 0.650274C1.85786 0.152772 1.99778 0.00507654 2.49528 0.00507654C4.94392 0.00507654 7.39256 -0.00269691 9.8412 0.00507654C11.6369 0.00507654 12.9894 0.782422 13.8989 2.32934C13.9145 2.36043 13.9378 2.39153 13.9767 2.44594C14.0233 2.36821 14.07 2.31379 14.1088 2.25161C14.995 0.813516 16.2854 0.0283969 17.98 0.01285C20.4986 -0.0104704 23.0172 0.00507654 25.5358 0.00507654C25.9556 0.00507654 26.1188 0.168319 26.1188 0.588086C26.1188 4.70025 26.1188 8.81241 26.1188 12.9246C26.1188 13.2899 25.94 13.5076 25.6524 13.4998C25.3648 13.4998 25.186 13.2821 25.186 12.9168C25.186 9.04561 25.186 5.17443 25.186 1.30324C25.186 1.18664 25.186 1.07781 25.186 0.937892C25.0694 0.930118 24.9761 0.922345 24.8828 0.922345C22.6208 0.922345 20.3509 0.922345 18.0888 0.922345C16.0677 0.922345 14.5519 2.37598 14.4586 4.39708C14.4431 4.71579 14.2643 4.92568 14 4.92568C13.7279 4.92568 13.5414 4.72357 13.5258 4.40485C13.417 2.34489 11.9167 0.922345 9.8412 0.914571C7.60244 0.914571 5.37146 0.914571 3.1327 0.914571C3.03165 0.914571 2.92282 0.914571 2.80622 0.914571C2.80622 6.50369 2.80622 12.0695 2.80622 17.6741C2.90727 17.6741 3.00833 17.6741 3.10938 17.6741C4.64853 17.6741 6.1799 17.6819 7.71905 17.6741C9.6935 17.6664 11.5436 18.1172 13.2926 19.0423C13.3548 19.0734 13.4248 19.1045 13.5258 19.1511C13.5258 19.0034 13.5258 18.8868 13.5258 18.778C13.5258 14.798 13.5258 10.8257 13.5258 6.84572C13.5258 6.77576 13.5258 6.71357 13.5258 6.64361C13.5258 6.25494 13.7046 6.03728 14 6.04505C14.2876 6.05283 14.4586 6.26271 14.4586 6.63584C14.4586 7.17221 14.4586 7.7008 14.4586 8.23717C14.4586 11.7508 14.4586 15.2566 14.4586 18.7702C14.4586 18.8868 14.4586 19.0034 14.4586 19.1589C14.5597 19.1122 14.6374 19.0811 14.7074 19.0423C16.4253 18.1328 18.2521 17.6819 20.1954 17.6819C21.7424 17.6819 23.2893 17.6819 24.8284 17.6819C24.9373 17.6819 25.0383 17.6819 25.186 17.6819C25.186 17.5653 25.186 17.4643 25.186 17.3632C25.186 16.5781 25.186 15.793 25.186 15.0079C25.186 14.6425 25.357 14.4248 25.6524 14.4248C25.94 14.4248 26.1188 14.6347 26.1188 15.0079C26.1188 16.0184 26.1188 17.029 26.1188 18.0317C26.1188 18.4515 25.9556 18.6147 25.5358 18.6147C23.6624 18.6147 21.7812 18.5992 19.9078 18.6225C18.0267 18.6692 16.2776 19.1977 14.6219 20.1928Z" fill="white"/>
<path d="M20.5064 3.26952C21.4314 3.26952 22.3487 3.26952 23.2737 3.26952C23.5924 3.26952 23.7945 3.46386 23.7868 3.7437C23.779 4.008 23.5846 4.18679 23.2815 4.20234C23.2037 4.20234 23.126 4.20234 23.0483 4.20234C21.4081 4.20234 19.7679 4.21011 18.1199 4.20234C17.3892 4.20234 16.7207 4.37335 16.0988 4.75425C15.8034 4.93304 15.5313 4.89417 15.3836 4.66097C15.2282 4.41222 15.3137 4.14792 15.6168 3.96136C16.3165 3.52605 17.0783 3.29284 17.9022 3.27729C18.7729 3.26175 19.6357 3.26952 20.5064 3.26952Z" fill="white"/>
<path d="M20.4985 5.6016C21.4236 5.6016 22.3409 5.59383 23.2659 5.60937C23.4214 5.60937 23.6235 5.72597 23.709 5.85812C23.7789 5.95918 23.7712 6.2157 23.6934 6.30121C23.5846 6.42559 23.367 6.51887 23.1959 6.51887C21.5324 6.53441 19.8767 6.53441 18.2132 6.52664C17.4436 6.51887 16.7362 6.68211 16.0755 7.0941C15.7956 7.26512 15.5313 7.21848 15.3836 6.99305C15.2281 6.75207 15.3059 6.48777 15.5857 6.30121C16.2776 5.85812 17.0394 5.61715 17.8633 5.6016C18.7495 5.59383 19.6279 5.6016 20.4985 5.6016Z" fill="white"/>
<path d="M20.5061 8.85909C19.6977 8.85909 18.897 8.86687 18.0886 8.85909C17.3812 8.85132 16.7282 9.03011 16.1219 9.40324C15.811 9.59757 15.5389 9.55871 15.3834 9.30995C15.228 9.0612 15.3212 8.80468 15.6322 8.61034C16.3318 8.17503 17.0936 7.94183 17.9176 7.93405C19.6821 7.92628 21.4545 7.92628 23.2191 7.93405C23.5689 7.93405 23.771 8.11284 23.7788 8.39269C23.7865 8.6803 23.5689 8.86687 23.2035 8.86687C22.3096 8.85909 21.4079 8.85909 20.5061 8.85909Z" fill="white"/>
<path d="M20.4985 10.2578C21.4002 10.2578 22.3019 10.2578 23.2114 10.2578C23.5767 10.2578 23.7944 10.4366 23.7944 10.7243C23.7944 11.0119 23.5767 11.1907 23.2114 11.1907C21.5246 11.1907 19.8299 11.1984 18.1431 11.1907C17.4124 11.1907 16.7439 11.3539 16.122 11.7348C15.8111 11.9291 15.539 11.8825 15.3913 11.626C15.2514 11.385 15.3369 11.1285 15.6323 10.9419C16.3319 10.5066 17.0937 10.2656 17.9177 10.2578C18.765 10.2501 19.6356 10.2578 20.4985 10.2578Z" fill="white"/>
<path d="M20.4828 12.5825C21.3845 12.5825 22.2862 12.5825 23.1957 12.5825C23.5688 12.5825 23.7787 12.7458 23.7865 13.0411C23.7943 13.3365 23.5688 13.5153 23.1879 13.5153C21.5167 13.5153 19.8454 13.5231 18.1741 13.5153C17.4278 13.5076 16.736 13.6786 16.0986 14.075C15.8032 14.2538 15.5311 14.2072 15.3834 13.9662C15.2357 13.7252 15.3134 13.4687 15.6088 13.2821C16.3084 12.839 17.0702 12.6058 17.8942 12.5903C18.7571 12.5747 19.6199 12.5825 20.4828 12.5825Z" fill="white"/>
<path d="M7.48593 14.9141C8.35655 14.9141 9.23496 14.8986 10.1056 14.9141C10.9218 14.9297 11.6758 15.1629 12.3599 15.5982C12.6553 15.7848 12.7408 16.0335 12.6009 16.2823C12.4532 16.531 12.1733 16.5777 11.8702 16.3911C11.2483 16.0102 10.5798 15.8392 9.84906 15.847C8.20886 15.8547 6.56866 15.847 4.92069 15.847C4.85072 15.847 4.78076 15.847 4.71858 15.847C4.39986 15.8392 4.19775 15.6604 4.19775 15.3805C4.19775 15.1085 4.39986 14.9141 4.71858 14.9141C5.63584 14.9064 6.56089 14.9141 7.48593 14.9141Z" fill="white"/>
<path d="M20.5218 15.8393C19.7445 15.8393 18.9671 15.8471 18.1898 15.8393C17.428 15.8238 16.7284 15.9948 16.0832 16.4068C15.8966 16.5234 15.6789 16.5855 15.5157 16.4223C15.4069 16.3057 15.3369 16.1036 15.3369 15.9481C15.3369 15.8393 15.4768 15.6994 15.5857 15.6216C16.2464 15.1863 16.9849 14.9298 17.7778 14.922C19.6045 14.8987 21.4313 14.9143 23.2581 14.9143C23.5768 14.9143 23.7789 15.1086 23.7789 15.3807C23.7789 15.6527 23.5768 15.8393 23.2581 15.8471C22.3486 15.8471 21.4391 15.8393 20.5218 15.8393Z" fill="white"/>
<path d="M12.663 4.29563C12.6708 4.75426 12.2977 5.01079 11.9867 4.80868C11.1161 4.24121 10.16 4.17903 9.16496 4.19457C7.71132 4.21789 6.24991 4.20235 4.79627 4.19457C4.63303 4.19457 4.43869 4.14016 4.32209 4.0391C4.06557 3.8059 4.20549 3.37059 4.5553 3.28508C4.63303 3.26953 4.71077 3.26953 4.7885 3.26953C6.51421 3.26953 8.24769 3.26953 9.9734 3.26953C10.8363 3.26953 11.6447 3.49496 12.3676 3.96914C12.5075 4.06242 12.6008 4.22567 12.663 4.29563Z" fill="white"/>
<path d="M7.50131 5.60156C8.36416 5.60156 9.22702 5.59379 10.0976 5.60156C10.9216 5.61711 11.6834 5.85031 12.383 6.2934C12.6707 6.47996 12.7562 6.73649 12.6007 6.97746C12.453 7.21067 12.1809 7.25731 11.8855 7.07852C11.2559 6.68984 10.5718 6.51883 9.83334 6.5266C8.20092 6.53438 6.56849 6.5266 4.93607 6.5266C4.85833 6.5266 4.7806 6.5266 4.70286 6.5266C4.39192 6.51106 4.18204 6.32449 4.19759 6.04465C4.20536 5.78035 4.3997 5.59379 4.70286 5.59379C5.37138 5.58601 6.0399 5.59379 6.71619 5.59379C6.97271 5.60156 7.23701 5.60156 7.50131 5.60156Z" fill="white"/>
<path d="M7.4937 7.92582C8.35655 7.92582 9.21941 7.91804 10.09 7.92582C10.914 7.94137 11.6758 8.17457 12.3754 8.61766C12.6708 8.80422 12.7486 9.06074 12.6086 9.30172C12.4609 9.5427 12.1889 9.59711 11.8935 9.41055C11.2561 9.0141 10.5642 8.84309 9.81797 8.85086C8.17777 8.85863 6.53757 8.85086 4.88959 8.85086C4.81186 8.85086 4.73412 8.85863 4.65639 8.85086C4.38432 8.82754 4.19775 8.6332 4.19775 8.38445C4.19775 8.12793 4.39209 7.93359 4.66416 7.92582C5.16166 7.91804 5.65139 7.92582 6.14889 7.92582C6.59975 7.92582 7.04284 7.92582 7.4937 7.92582Z" fill="white"/>
<path d="M7.48597 10.2583C8.34882 10.2583 9.21167 10.2505 10.0823 10.2583C10.9063 10.2738 11.6681 10.507 12.3677 10.9423C12.6631 11.1289 12.7486 11.3776 12.6087 11.6186C12.461 11.8674 12.1811 11.914 11.878 11.7274C11.2561 11.3465 10.5876 11.1755 9.85687 11.1833C8.21667 11.1911 6.57647 11.1833 4.9285 11.1833C4.85854 11.1833 4.78858 11.1833 4.72639 11.1833C4.40768 11.1755 4.20557 10.9967 4.20557 10.7169C4.20557 10.4448 4.40768 10.2505 4.72639 10.2505C5.63588 10.2505 6.56092 10.2583 7.48597 10.2583Z" fill="white"/>
<path d="M7.48597 12.5825C8.34882 12.5825 9.21167 12.5747 10.0823 12.5825C10.9063 12.598 11.6681 12.8312 12.3677 13.2665C12.6631 13.4531 12.7486 13.7019 12.6087 13.9428C12.461 14.1916 12.1811 14.2382 11.878 14.0517C11.2561 13.6708 10.5876 13.4997 9.85687 13.5075C8.21667 13.5153 6.57647 13.5075 4.9285 13.5075C4.85854 13.5075 4.78858 13.5075 4.72639 13.5075C4.40768 13.4997 4.20557 13.321 4.20557 13.0411C4.20557 12.769 4.40768 12.5747 4.72639 12.5747C5.63588 12.5825 6.56092 12.5825 7.48597 12.5825Z" fill="white"/>
</svg>
