<svg width="16" height="16" viewBox="0 0 16 16" fill="none" xmlns="http://www.w3.org/2000/svg">
<path d="M1.33325 10.1933V3.80668C1.33325 2.92001 1.84659 2.70668 2.47325 3.33335L4.19992 5.06001C4.45992 5.32001 4.88658 5.32001 5.13992 5.06001L7.52659 2.66668C7.78658 2.40668 8.21325 2.40668 8.46658 2.66668L10.8599 5.06001C11.1199 5.32001 11.5466 5.32001 11.7999 5.06001L13.5266 3.33335C14.1533 2.70668 14.6666 2.92001 14.6666 3.80668V10.2C14.6666 12.2 13.3333 13.5333 11.3333 13.5333H4.66658C2.82659 13.5267 1.33325 12.0333 1.33325 10.1933Z" fill="url(#paint0_linear_1_1661)" stroke="white" stroke-linecap="round" stroke-linejoin="round"/>
<defs>
<linearGradient id="paint0_linear_1_1661" x1="1.33325" y1="2.47168" x2="12.2047" y2="15.5758" gradientUnits="userSpaceOnUse">
<stop stop-color="#604BFF"/>
<stop offset="1" stop-color="#DA58F7"/>
</linearGradient>
</defs>
</svg>
