<svg width="120" height="120" viewBox="0 0 120 120" fill="none" xmlns="http://www.w3.org/2000/svg">
<path d="M15.8496 37.1998L59.9995 62.7498L103.849 37.3497" stroke="white" stroke-width="4" stroke-linecap="round" stroke-linejoin="round"/>
<path d="M60 108.05V62.7002" stroke="white" stroke-width="4" stroke-linecap="round" stroke-linejoin="round"/>
<path d="M108.053 45.8501V74.1503C108.053 74.4003 108.053 74.6001 108.003 74.8501C104.503 71.8001 100.003 70.0002 95.0031 70.0002C90.3031 70.0002 85.9531 71.6502 82.5031 74.4002C77.9031 78.0502 75.0031 83.7002 75.0031 90.0002C75.0031 93.7502 76.053 97.3002 77.903 100.3C78.353 101.1 78.903 101.85 79.503 102.55L70.3531 107.6C64.6531 110.8 55.353 110.8 49.653 107.6L22.953 92.8002C16.903 89.4502 11.9531 81.0503 11.9531 74.1503V45.8501C11.9531 38.9501 16.903 30.5502 22.953 27.2002L49.653 12.4001C55.353 9.20012 64.6531 9.20012 70.3531 12.4001L97.0531 27.2002C103.103 30.5502 108.053 38.9501 108.053 45.8501Z" stroke="white" stroke-width="4" stroke-linecap="round" stroke-linejoin="round"/>
<path d="M115 90.0001C115 93.7501 113.95 97.3001 112.1 100.3C111.05 102.1 109.7 103.7 108.15 105C104.65 108.15 100.05 110 95 110C87.7 110 81.3499 106.1 77.8999 100.3C76.0499 97.3001 75 93.7501 75 90.0001C75 83.7001 77.9 78.0501 82.5 74.4001C85.95 71.6501 90.3 70.0001 95 70.0001C106.05 70.0001 115 78.9501 115 90.0001Z" stroke="white" stroke-width="4" stroke-miterlimit="10" stroke-linecap="round" stroke-linejoin="round"/>
<path d="M100.346 95.1987L89.7462 84.6488" stroke="white" stroke-width="4" stroke-miterlimit="10" stroke-linecap="round" stroke-linejoin="round"/>
<path d="M100.248 84.8L89.6484 95.35" stroke="white" stroke-width="4" stroke-miterlimit="10" stroke-linecap="round" stroke-linejoin="round"/>
</svg>
