<svg width="28" height="29" viewBox="0 0 28 29" fill="none" xmlns="http://www.w3.org/2000/svg">
<path d="M14.8695 28.0296C14.2849 28.0296 13.7004 28.0296 13.1158 28.0296C13.0354 28.0149 12.955 27.993 12.882 27.9784C12.0563 27.8396 11.216 27.7665 10.4122 27.5546C3.49989 25.7206 -0.891572 19.0567 0.153317 11.9689C0.71595 8.16203 2.57922 5.09312 5.64812 2.79144C10.1273 -0.562433 16.097 -0.92778 20.9415 1.87808C24.7119 4.06285 26.9916 7.34366 27.7881 11.6401C27.8831 12.137 27.9269 12.6485 28 13.1527C28 13.7372 28 14.3218 28 14.9063C27.9854 14.9794 27.9635 15.0452 27.9562 15.1182C27.7735 17.5222 27.0282 19.7362 25.6837 21.731C23.4551 25.041 20.3643 27.087 16.4331 27.8177C15.9217 27.9126 15.3956 27.9565 14.8695 28.0296ZM14.0145 10.018C13.978 10.0034 13.9707 9.99607 13.9634 9.99607C13.9269 9.94492 13.883 9.89377 13.8465 9.84262C13.0573 8.83427 12.0271 8.30086 10.741 8.25702C8.24208 8.18395 6.27652 10.5002 6.76608 12.9481C6.98529 14.0368 7.54792 14.9648 8.22747 15.8124C9.79845 17.7926 11.7567 19.327 13.8538 20.708C13.9269 20.7519 14.0803 20.7519 14.1534 20.7007C15.9874 19.4951 17.7045 18.1506 19.1732 16.5065C20.0062 15.5786 20.7296 14.5775 21.1096 13.3719C21.9791 10.6025 19.597 7.83322 16.7327 8.28625C15.5928 8.47623 14.6868 9.06078 14.0145 10.018Z" fill="#AEAEAE"/>
</svg>
