<svg width="24" height="24" viewBox="0 0 24 24" fill="none" xmlns="http://www.w3.org/2000/svg">
<path d="M18 7.16C17.94 7.15 17.87 7.15 17.81 7.16C16.43 7.11 15.33 5.98 15.33 4.58C15.33 3.15 16.48 2 17.91 2C19.34 2 20.49 3.16 20.49 4.58C20.48 5.98 19.38 7.11 18 7.16Z" stroke="white" stroke-width="1.5" stroke-linecap="round" stroke-linejoin="round"/>
<path d="M16.9703 14.4402C18.3403 14.6702 19.8503 14.4302 20.9103 13.7202C22.3203 12.7802 22.3203 11.2402 20.9103 10.3002C19.8403 9.59016 18.3103 9.35016 16.9403 9.59016" stroke="white" stroke-width="1.5" stroke-linecap="round" stroke-linejoin="round"/>
<path d="M5.97047 7.16C6.03047 7.15 6.10047 7.15 6.16047 7.16C7.54047 7.11 8.64047 5.98 8.64047 4.58C8.64047 3.15 7.49047 2 6.06047 2C4.63047 2 3.48047 3.16 3.48047 4.58C3.49047 5.98 4.59047 7.11 5.97047 7.16Z" stroke="white" stroke-width="1.5" stroke-linecap="round" stroke-linejoin="round"/>
<path d="M7.00043 14.4399C5.63043 14.6699 4.12043 14.4299 3.06043 13.7199C1.65043 12.7799 1.65043 11.2399 3.06043 10.2999C4.13043 9.58992 5.66043 9.34991 7.03043 9.58991" stroke="white" stroke-width="1.5" stroke-linecap="round" stroke-linejoin="round"/>
<path d="M12.0001 14.6297C11.9401 14.6197 11.8701 14.6197 11.8101 14.6297C10.4301 14.5797 9.33008 13.4497 9.33008 12.0497C9.33008 10.6197 10.4801 9.46973 11.9101 9.46973C13.3401 9.46973 14.4901 10.6297 14.4901 12.0497C14.4801 13.4497 13.3801 14.5897 12.0001 14.6297Z" stroke="white" stroke-width="1.5" stroke-linecap="round" stroke-linejoin="round"/>
<path d="M9.08973 17.7796C7.67973 18.7196 7.67973 20.2596 9.08973 21.1996C10.6897 22.2696 13.3097 22.2696 14.9097 21.1996C16.3197 20.2596 16.3197 18.7196 14.9097 17.7796C13.3197 16.7196 10.6897 16.7196 9.08973 17.7796Z" stroke="white" stroke-width="1.5" stroke-linecap="round" stroke-linejoin="round"/>
</svg>
