<svg width="25" height="24" viewBox="0 0 25 24" fill="none" xmlns="http://www.w3.org/2000/svg">
<path d="M12.5 15C14.1569 15 15.5 13.6569 15.5 12C15.5 10.3431 14.1569 9 12.5 9C10.8431 9 9.5 10.3431 9.5 12C9.5 13.6569 10.8431 15 12.5 15Z" stroke="white" stroke-width="2" stroke-miterlimit="10" stroke-linecap="round" stroke-linejoin="round"/>
<path d="M2.5 12.8801V11.1201C2.5 10.0801 3.35 9.22006 4.4 9.22006C6.21 9.22006 6.95 7.94006 6.04 6.37006C5.52 5.47006 5.83 4.30006 6.74 3.78006L8.47 2.79006C9.26 2.32006 10.28 2.60006 10.75 3.39006L10.86 3.58006C11.76 5.15006 13.24 5.15006 14.15 3.58006L14.26 3.39006C14.73 2.60006 15.75 2.32006 16.54 2.79006L18.27 3.78006C19.18 4.30006 19.49 5.47006 18.97 6.37006C18.06 7.94006 18.8 9.22006 20.61 9.22006C21.65 9.22006 22.51 10.0701 22.51 11.1201V12.8801C22.51 13.9201 21.66 14.7801 20.61 14.7801C18.8 14.7801 18.06 16.0601 18.97 17.6301C19.49 18.5401 19.18 19.7001 18.27 20.2201L16.54 21.2101C15.75 21.6801 14.73 21.4001 14.26 20.6101L14.15 20.4201C13.25 18.8501 11.77 18.8501 10.86 20.4201L10.75 20.6101C10.28 21.4001 9.26 21.6801 8.47 21.2101L6.74 20.2201C5.83 19.7001 5.52 18.5301 6.04 17.6301C6.95 16.0601 6.21 14.7801 4.4 14.7801C3.35 14.7801 2.5 13.9201 2.5 12.8801Z" stroke="white" stroke-width="2" stroke-miterlimit="10" stroke-linecap="round" stroke-linejoin="round"/>
</svg>
