<svg width="9" height="8" viewBox="0 0 9 8" fill="none" xmlns="http://www.w3.org/2000/svg">
<path d="M5.03502 1.29741L5.62647 2.44215C5.70712 2.6015 5.9222 2.75435 6.10366 2.78362L7.17567 2.95598C7.86121 3.06655 8.02251 3.54786 7.52852 4.02267L6.69511 4.82919C6.55397 4.96578 6.47668 5.2292 6.52037 5.41782L6.75896 6.41622C6.94715 7.20648 6.51365 7.51218 5.79114 7.09916L4.78635 6.52354C4.60488 6.41947 4.30579 6.41947 4.12097 6.52354L3.11617 7.09916C2.39702 7.51218 1.96016 7.20323 2.14835 6.41622L2.38694 5.41782C2.43063 5.2292 2.35334 4.96578 2.2122 4.82919L1.37879 4.02267C0.888156 3.54786 1.0461 3.06655 1.73164 2.95598L2.80365 2.78362C2.98175 2.75435 3.19683 2.6015 3.27748 2.44215L3.86893 1.29741C4.19154 0.676255 4.71577 0.676255 5.03502 1.29741Z" fill="#FFA53E"/>
</svg>
