<svg width="23" height="18" viewBox="0 0 23 18" fill="none" xmlns="http://www.w3.org/2000/svg">
<path d="M16.5 17L6.5 17C2.5 17 1.5 16 1.5 12L1.5 6C1.5 2 2.5 0.999999 6.5 0.999999L16.5 1C20.5 1 21.5 2 21.5 6L21.5 12C21.5 16 20.5 17 16.5 17Z" stroke="url(#paint0_linear_1_4570)" stroke-width="1.5" stroke-linecap="round" stroke-linejoin="round"/>
<path d="M18 11L18 7" stroke="url(#paint1_linear_1_4570)" stroke-width="1.5" stroke-linecap="round" stroke-linejoin="round"/>
<path d="M4.4 8.99995C4.4 9.85599 5.09396 10.55 5.95 10.55C6.80604 10.55 7.5 9.85599 7.5 8.99995C7.5 8.14391 6.80604 7.44995 5.95 7.44995C5.09396 7.44995 4.4 8.14391 4.4 8.99995Z" stroke="url(#paint2_linear_1_4570)" stroke-width="1.5" stroke-linecap="round" stroke-linejoin="round"/>
<defs>
<linearGradient id="paint0_linear_1_4570" x1="21.5" y1="1" x2="5.89024" y2="20.5122" gradientUnits="userSpaceOnUse">
<stop stop-color="#604BFF"/>
<stop offset="1" stop-color="#DA58F7"/>
</linearGradient>
<linearGradient id="paint1_linear_1_4570" x1="18" y1="7" x2="16.1176" y2="7.47059" gradientUnits="userSpaceOnUse">
<stop stop-color="#604BFF"/>
<stop offset="1" stop-color="#DA58F7"/>
</linearGradient>
<linearGradient id="paint2_linear_1_4570" x1="7.5" y1="7.44995" x2="4.4" y2="10.55" gradientUnits="userSpaceOnUse">
<stop stop-color="#604BFF"/>
<stop offset="1" stop-color="#DA58F7"/>
</linearGradient>
</defs>
</svg>
