<svg width="19" height="22" viewBox="0 0 19 22" fill="none" xmlns="http://www.w3.org/2000/svg">
<path d="M17.5 6V16C17.5 20 16.5 21 12.5 21H6.5C2.5 21 1.5 20 1.5 16V6C1.5 2 2.5 1 6.5 1H12.5C16.5 1 17.5 2 17.5 6Z" stroke="white" stroke-width="1.5" stroke-linecap="round" stroke-linejoin="round"/>
<path d="M11.5 4.5H7.5" stroke="white" stroke-width="1.5" stroke-linecap="round" stroke-linejoin="round"/>
<path d="M9.50001 18.1C10.3561 18.1 11.05 17.406 11.05 16.55C11.05 15.694 10.3561 15 9.50001 15C8.64397 15 7.95001 15.694 7.95001 16.55C7.95001 17.406 8.64397 18.1 9.50001 18.1Z" stroke="white" stroke-width="1.5" stroke-linecap="round" stroke-linejoin="round"/>
</svg>
