<svg width="25" height="24" viewBox="0 0 25 24" fill="none" xmlns="http://www.w3.org/2000/svg">
<path d="M17.1992 18.9799H7.79922C7.37922 18.9799 6.90922 18.6499 6.76922 18.2499L2.62922 6.66986C2.03922 5.00986 2.72922 4.49986 4.14922 5.51986L8.04922 8.30986C8.69922 8.75986 9.43922 8.52986 9.71922 7.79986L11.4792 3.10986C12.0392 1.60986 12.9692 1.60986 13.5292 3.10986L15.2892 7.79986C15.5692 8.52986 16.3092 8.75986 16.9492 8.30986L20.6092 5.69986C22.1692 4.57986 22.9192 5.14986 22.2792 6.95986L18.2392 18.2699C18.0892 18.6499 17.6192 18.9799 17.1992 18.9799Z" fill="#FFC634"/>
<path d="M7 22H18" stroke="#FFC634" stroke-width="3" stroke-linecap="round" stroke-linejoin="round"/>
<path d="M10 14H15" stroke="white" stroke-width="2" stroke-linecap="round" stroke-linejoin="round"/>
</svg>
