<svg width="16" height="16" viewBox="0 0 16 16" fill="none" xmlns="http://www.w3.org/2000/svg">
<path d="M14.6667 5.68004V2.65337C14.6667 1.71337 14.24 1.33337 13.18 1.33337H10.4867C9.42667 1.33337 9 1.71337 9 2.65337V5.67337C9 6.62004 9.42667 6.99337 10.4867 6.99337H13.18C14.24 7.00004 14.6667 6.62004 14.6667 5.68004Z" stroke="white" stroke-linecap="round" stroke-linejoin="round"/>
<path d="M14.6667 13.18V10.4867C14.6667 9.42667 14.24 9 13.18 9H10.4867C9.42667 9 9 9.42667 9 10.4867V13.18C9 14.24 9.42667 14.6667 10.4867 14.6667H13.18C14.24 14.6667 14.6667 14.24 14.6667 13.18Z" stroke="white" stroke-linecap="round" stroke-linejoin="round"/>
<path d="M7.00004 5.68004V2.65337C7.00004 1.71337 6.57337 1.33337 5.51337 1.33337H2.82004C1.76004 1.33337 1.33337 1.71337 1.33337 2.65337V5.67337C1.33337 6.62004 1.76004 6.99337 2.82004 6.99337H5.51337C6.57337 7.00004 7.00004 6.62004 7.00004 5.68004Z" stroke="white" stroke-linecap="round" stroke-linejoin="round"/>
<path d="M7.00004 13.18V10.4867C7.00004 9.42667 6.57337 9 5.51337 9H2.82004C1.76004 9 1.33337 9.42667 1.33337 10.4867V13.18C1.33337 14.24 1.76004 14.6667 2.82004 14.6667H5.51337C6.57337 14.6667 7.00004 14.24 7.00004 13.18Z" stroke="white" stroke-linecap="round" stroke-linejoin="round"/>
</svg>
